<svg width="32" height="32" viewBox="0 0 32 32" fill="none" xmlns="http://www.w3.org/2000/svg">
  <!-- Tmavé pozadí -->
  <rect width="32" height="32" rx="7" fill="#1E3A5F"/>
  <!-- Slunce -->
  <circle cx="24" cy="7" r="4" fill="#F59E0B"/>
  <line x1="24" y1="2" x2="24" y2="1" stroke="#F59E0B" stroke-width="1.5" stroke-linecap="round"/>
  <line x1="27.5" y1="3.5" x2="28.5" y2="2.5" stroke="#F59E0B" stroke-width="1.5" stroke-linecap="round"/>
  <line x1="29" y1="7" x2="30" y2="7" stroke="#F59E0B" stroke-width="1.5" stroke-linecap="round"/>
  <line x1="27.5" y1="10.5" x2="28.5" y2="11.5" stroke="#F59E0B" stroke-width="1.5" stroke-linecap="round"/>
  <line x1="20.5" y1="3.5" x2="19.5" y2="2.5" stroke="#F59E0B" stroke-width="1.5" stroke-linecap="round"/>
  <!-- Budova levá -->
  <rect x="2" y="15" width="8" height="14" rx="1" fill="none" stroke="white" stroke-width="1.4"/>
  <!-- Budova střední — vyšší -->
  <rect x="12" y="11" width="9" height="18" rx="1" fill="none" stroke="white" stroke-width="1.4"/>
  <!-- Základna -->
  <line x1="1" y1="29" x2="31" y2="29" stroke="white" stroke-width="1.2" stroke-linecap="round" opacity=".4"/>
  <!-- Okna levá budova -->
  <rect x="3.5" y="17.5" width="2" height="1.8" rx=".3" fill="rgba(255,255,255,0.55)" stroke="none"/>
  <rect x="6.5" y="17.5" width="2" height="1.8" rx=".3" fill="rgba(255,255,255,0.55)" stroke="none"/>
  <!-- Okna střední budova -->
  <rect x="13.5" y="13.5" width="2.5" height="1.8" rx=".3" fill="rgba(255,255,255,0.55)" stroke="none"/>
  <rect x="17" y="13.5" width="2.5" height="1.8" rx=".3" fill="rgba(255,255,255,0.55)" stroke="none"/>
  <rect x="13.5" y="17" width="2.5" height="1.8" rx=".3" fill="rgba(255,255,255,0.55)" stroke="none"/>
  <!-- Checkmark zelený -->
  <polyline points="3,23 9,29 22,14" fill="none" stroke="#2E8B4A" stroke-width="3" stroke-linecap="round" stroke-linejoin="round"/>
</svg>
